<svg id="Layer_1" enable-background="new 0 0 512 512" height="512" viewBox="0 0 512 512" width="512" xmlns="http://www.w3.org/2000/svg"><g><g><g><g><g><path d="m206.305 206.314h99.4v133.872h-99.4z" fill="#ffb294"/><path d="m355.406 106.9c9.15 0 16.567 7.417 16.567 16.567v33.137c0 9.15-7.417 16.567-16.567 16.567l-198.8-.001c-9.149 0-16.567-7.417-16.567-16.567v-33.133c0-9.149 7.417-16.567 16.567-16.567z" fill="#ffb294"/><path d="m173.173 53.867.001 119.303c0 45.747 37.085 82.833 82.833 82.833s82.832-37.085 82.832-82.833v-119.303z" fill="#ffc2a3"/><path d="m315.84 53.867v119.303c0 41.843-31.031 76.419-71.333 82.02 3.761.523 7.596.813 11.5.813 45.747 0 82.832-37.085 82.832-82.832v-119.303h-22.999z" fill="#ffb294"/></g><path d="m206.309 57.2v16.567c0 9.15-7.417 16.567-16.567 16.567h-16.56l.001-41.417c0-22.874 18.543-41.417 41.417-41.417h82.832c22.874 0 41.417 18.543 41.417 41.417l.002 41.417h-16.576c-9.15 0-16.567-7.417-16.567-16.567v-16.567z" fill="#5b7fa0"/><path d="m338.85 48.917c0-22.874-18.543-41.417-41.417-41.417h-23.012c22.874 0 41.417 18.543 41.417 41.417l.002 40.119c1.979.835 4.154 1.298 6.436 1.298h16.576z" fill="#4a6f99"/></g><path d="m458.215 504.466c21.596-.973 35.447-23.524 27.418-43.596l-49.732-119.598c-6.968-17.419-19.694-30.843-36.333-37.345l-287.14.002c-16.637 6.503-29.361 19.926-36.328 37.344l-49.733 119.597c-8.029 20.071 5.822 42.623 27.418 43.596.503.022 403.927.022 404.43 0z" fill="#77dfff"/><path d="m485.633 460.87-49.733-119.598c-6.968-17.419-19.693-30.843-36.332-37.345h-23.368c16.639 6.502 29.365 19.926 36.332 37.345l49.732 119.598c8.029 20.072-5.822 42.623-27.418 43.596-.242.011 23.107.012 23.368 0 21.596-.973 35.447-23.525 27.419-43.596z" fill="#69cdff"/><path d="m485.633 460.87-16.302-39.203h-62.333-301.996-62.333l-16.302 39.203c-8.028 20.072 5.822 42.623 27.418 43.596.503.023 403.927.023 404.429 0 21.596-.973 35.447-23.525 27.419-43.596z" fill="#ffc2a3"/><path d="m485.633 460.87-16.302-39.203h-23.368l16.302 39.203c8.029 20.072-5.822 42.623-27.418 43.596-.081.004 2.51.006 5.99.007 11.002-.002 17.316-.004 17.378-.007 21.595-.973 35.446-23.525 27.418-43.596z" fill="#ffb294"/></g><g><path d="m405.095 474.367v-152.101c0-18.299-14.834-33.133-33.133-33.133h-231.933c-18.299 0-33.133 14.834-33.133 33.133v152.101z" fill="#e9efff"/><path d="m371.961 289.133h-23c18.299 0 33.133 14.834 33.133 33.133v152.101h23v-152.101c.001-18.299-14.834-33.133-33.133-33.133z" fill="#bec8f7"/><ellipse cx="255.995" cy="388.533" fill="#5b7fa0" rx="16.567" ry="16.567" transform="matrix(.707 -.707 .707 .707 -199.755 294.815)"/><path d="m82.045 487.933c0 9.15 7.417 16.567 16.567 16.567h314.767c9.15 0 16.567-7.417 16.567-16.567v-8.283c0-4.575-3.709-8.283-8.283-8.283h-331.335c-4.575 0-8.283 3.709-8.283 8.283z" fill="#bec8f7"/><path d="m421.662 471.367h-22.947c4.575 0 8.283 3.708 8.283 8.283v8.283c0 9.15-7.417 16.567-16.567 16.567h22.947c9.149 0 16.567-7.417 16.567-16.567v-8.283c0-4.575-3.709-8.283-8.283-8.283z" fill="#a2b6f4"/></g></g><g fill="#0c0a0b"><path d="m222.876 139.25c4.142 0 7.5-3.357 7.5-7.5v-8.283c0-4.143-3.358-7.5-7.5-7.5-4.143 0-7.5 3.357-7.5 7.5v8.283c0 4.143 3.357 7.5 7.5 7.5z"/><path d="m289.143 139.25c4.142 0 7.5-3.357 7.5-7.5v-8.283c0-4.143-3.358-7.5-7.5-7.5-4.143 0-7.5 3.357-7.5 7.5v8.283c0 4.143 3.357 7.5 7.5 7.5z"/><path d="m239.442 196.199h33.134c4.142 0 7.5-3.357 7.5-7.5s-3.358-7.5-7.5-7.5h-33.134c-4.143 0-7.5 3.357-7.5 7.5s3.358 7.5 7.5 7.5z"/><path d="m492.597 458.085c-.013-.032-.025-.063-.039-.095l-16.3-39.201c-.01-.025-.02-.05-.031-.074l-33.382-80.279c-7.555-18.85-21.16-33.176-38.444-40.609-7.423-9.829-19.2-16.195-32.439-16.195h-17.559c-4.143 0-7.5 3.357-7.5 7.5s3.357 7.5 7.5 7.5h17.559c14.134 0 25.633 11.499 25.633 25.633v141.601h-283.199v-141.6c0-14.134 11.499-25.633 25.633-25.633h184.375c4.143 0 7.5-3.357 7.5-7.5s-3.357-7.5-7.5-7.5h-11.219v-38.575c18.415-15.091 30.78-37.302 32.851-62.388h9.381c13.271 0 24.066-10.796 24.066-24.066v-33.137c0-13.271-10.796-24.066-24.066-24.066h-9.067v-9.028c0-.013.002-.026.002-.039s-.002-.026-.002-.039v-41.378c0-26.973-21.945-48.917-48.917-48.917h-82.832c-26.973 0-48.917 21.944-48.917 48.917v41.391c0 .009-.001.017-.001.026s.001.017.001.026v9.042h-9.067c-13.271 0-24.066 10.797-24.066 24.067v33.132c0 13.271 10.796 24.067 24.066 24.067h9.381c2.07 25.071 14.42 47.27 32.817 62.361v38.603h-58.787c-13.242 0-25.021 6.369-32.444 16.202-17.278 7.435-30.878 21.757-38.429 40.604l-33.38 80.274c-.011.027-.022.054-.034.081l-16.299 39.197c-.014.031-.026.064-.039.095-4.754 11.886-3.439 25.424 3.518 36.214 6.871 10.658 17.998 17.095 30.529 17.659.206.009.629.028 45.08.04.027 0 .054.002.081.002h8.281.002 26.416c4.143 0 7.5-3.357 7.5-7.5s-3.357-7.5-7.5-7.5h-26.414c-2.269 0-5.128-.001-8.327-.002-4.98-.023-9.025-4.079-9.025-9.064v-8.284c0-.432.352-.783.783-.783h16.567 298.199 16.567c.432 0 .783.352.783.783v8.284c0 4.985-4.045 9.042-9.026 9.064-3.195.001-6.049.002-8.316.002h-241.79c-4.143 0-7.5 3.357-7.5 7.5s3.357 7.5 7.5 7.5h241.795.002 8.271c.027 0 .054-.002.081-.002 44.462-.012 44.885-.031 45.094-.04 12.528-.564 23.655-7.001 30.526-17.659 6.956-10.79 8.271-24.328 3.517-36.214zm-137.18-343.685c4.999 0 9.066 4.067 9.066 9.066v33.137c0 4.999-4.067 9.066-9.066 9.066h-9.067v-51.269zm-140.816-99.4h82.832c18.702 0 33.917 15.215 33.917 33.917v33.917h-9.074c-4.999 0-9.066-4.067-9.066-9.067v-9.067h.785c4.143 0 7.5-3.357 7.5-7.5s-3.357-7.5-7.5-7.5h-115.968c-4.143 0-7.5 3.357-7.5 7.5s3.357 7.5 7.5 7.5h.782v9.066c0 5-4.067 9.067-9.067 9.067h-9.058v-33.917c0-18.701 15.214-33.916 33.917-33.916zm-67.05 141.602v-33.132c0-5 4.067-9.067 9.066-9.067h9.067l.001 51.267h-9.067c-5-.001-9.067-4.068-9.067-9.068zm33.134 16.568-.001-75.336h9.058c13.27 0 24.067-10.797 24.067-24.067v-9.067h84.399v9.066c0 13.271 10.796 24.067 24.066 24.067h9.074v75.336c0 41.538-33.794 75.332-75.332 75.332-41.537.001-75.331-33.793-75.331-75.331zm33.13 79.847c12.604 6.688 26.967 10.485 42.202 10.485 15.221 0 29.572-3.79 42.167-10.467v28.598h-84.369zm-130.791 91.134c.014-.031.026-.064.039-.095 3.774-9.435 9.391-17.429 16.376-23.543-.025.582-.044 1.165-.044 1.752v91.901h-45.485zm-8.479 135.498v8.284c0 3.203.634 6.259 1.774 9.056-11.252-.006-21.083-.013-22.311-.022-7.566-.377-14.297-4.307-18.481-10.797-4.32-6.701-5.147-15.099-2.214-22.472l14.359-34.532h51.723v34.699h-9.067c-8.703.001-15.783 7.081-15.783 15.784zm354.391-135.592c.013.032.025.063.039.095l29.115 70.016h-45.495v-91.901c0-.59-.02-1.176-.045-1.761 6.99 6.114 12.61 14.111 16.386 23.551zm47.537 142.114c-4.185 6.49-10.917 10.421-18.481 10.797-1.226.009-11.063.016-22.321.022 1.141-2.797 1.775-5.853 1.775-9.056v-8.284c0-8.703-7.08-15.783-15.783-15.783h-9.067v-34.699h51.733l14.36 34.533c2.93 7.372 2.104 15.769-2.216 22.47z"/><path d="m231.929 388.533c0 13.271 10.796 24.066 24.066 24.066s24.066-10.796 24.066-24.066-10.796-24.066-24.066-24.066-24.066 10.796-24.066 24.066zm33.132 0c0 4.999-4.067 9.066-9.066 9.066s-9.066-4.067-9.066-9.066 4.067-9.066 9.066-9.066 9.066 4.067 9.066 9.066z"/></g></g></svg>