<svg id="bile2" enable-background="new 0 0 300 300" height="512" viewBox="0 0 300 300" width="512" xmlns="http://www.w3.org/2000/svg"><circle cx="116" cy="130" fill="#e5efef" r="86"/><path d="m50 116h216v136h-216z" fill="#6b4f5b"/><path d="m270 256h-224v-144h224zm-216-8h208v-128h-208z" fill="#4c241d"/><path d="m158 246.738v-131.543s31.04-31.57 87.946-21.047v131.544c0-.001-51.733-5.262-87.946 21.046z" fill="#fff"/><path d="m154 254.588v-141.03l1.147-1.167c1.328-1.351 33.198-32.966 91.527-22.176l3.272.605v139.299l-4.405-.448c-.5-.051-50.679-4.769-85.191 20.304zm8-137.645v122.329c30.271-18.463 67.302-18.488 79.947-17.868v-123.885c-26.592-4.212-46.852 1.247-59.34 6.708-10.979 4.8-17.992 10.417-20.607 12.716z" fill="#4c241d"/><path d="m158 246.738v-131.543s-31.059-31.57-88-21.047v131.544c0-.001 51.765-5.262 88 21.046z" fill="#fff"/><path d="m162 254.585-6.35-4.61c-34.6-25.122-84.742-20.355-85.246-20.304l-4.404.448v-139.3l3.273-.605c58.356-10.783 90.25 20.825 91.579 22.176l1.148 1.167zm-80.532-33.356c16.436 0 46.905 2.424 72.532 18.045v-122.323c-5.851-5.104-33.834-26.741-80-19.432v123.886c1.948-.095 4.476-.176 7.468-.176z" fill="#4c241d"/><g fill="#ffce56"><path d="m218 72c-1.024 0-2.047-.391-2.829-1.171l-12-12c-1.562-1.562-1.562-4.095 0-5.657s4.095-1.562 5.657 0l12 12c1.562 1.562 1.562 4.095 0 5.657-.781.78-1.804 1.171-2.828 1.171z"/><path d="m250 72c-1.024 0-2.047-.391-2.829-1.171-1.562-1.562-1.562-4.095 0-5.657l12-12c1.562-1.562 4.095-1.562 5.657 0s1.562 4.095 0 5.657l-12 12c-.781.78-1.804 1.171-2.828 1.171z"/><path d="m234 72c-2.209 0-4-1.791-4-4v-16c0-2.209 1.791-4 4-4s4 1.791 4 4v16c0 2.209-1.791 4-4 4z"/><path d="m114 196c-2.209 0-4-1.791-4-4v-56c0-2.209 1.791-4 4-4s4 1.791 4 4v56c0 2.209-1.791 4-4 4z"/><path d="m130.005 156.02c-.166 0-.333-.01-.501-.031l-32-4c-2.192-.274-3.747-2.273-3.473-4.465s2.27-3.749 4.465-3.473l32 4c2.192.274 3.747 2.273 3.473 4.465-.253 2.023-1.976 3.504-3.964 3.504z"/></g></svg>